<svg height="100" width="100"
     xmlns="http://www.w3.org/2000/svg"
     viewBox="0 0 206.04 262.08"
     version="1.1"
>
    <defs>
        <style>.cls-1{fill:#7030a0;fill-rule:evenodd;}</style>
    </defs>
    <path class="cls-1"
          d="M145,246a8.1,8.1,0,1,1-3.21,0,8.11,8.11,0,0,1,3.21,0Zm12.11-75.44a8.1,8.1,0,1,1-3.21,0,8.11,8.11,0,0,1,3.21,0ZM135.74,112a8.09,8.09,0,1,1-3.21,0,7.9,7.9,0,0,1,3.21,0Zm-87.89-.56a8.31,8.31,0,0,1,3.26.37l106.51,34.28a8.26,8.26,0,0,1,5.7,7.14l-.36,3.26-1.61,2.86a8.27,8.27,0,0,1-8.8,2.48L124,152.69l-.61.09a8.8,8.8,0,0,0-3,1.78l-1.81,2.8,20.85,6.71a8.27,8.27,0,0,1,5.7,7.14l-.37,3.26-1.6,2.86a8.28,8.28,0,0,1-8.8,2.48l-5.85-1.89-.1,2.07a8.65,8.65,0,0,0,1.44,3.22l1.88,1.86,23.57,7.59A8.27,8.27,0,0,1,161,199.8l-.37,3.26-1.6,2.87a8.27,8.27,0,0,1-8.8,2.47L54.76,177.68a8.26,8.26,0,0,1-5.34-10.4h0a8.28,8.28,0,0,1,7.14-5.71,8.38,8.38,0,0,1,3.27.37l4.46,1.44,2.62-.42a8.5,8.5,0,0,0,3-1.78l1.12-1.73-65.34-21A8.26,8.26,0,0,1,.4,128h0a8.26,8.26,0,0,1,7.14-5.7,8.12,8.12,0,0,1,3.26.36l51,16.41.16-3.33a8.58,8.58,0,0,0-1.44-3.22l-.44-.44-14-4.51a8.26,8.26,0,0,1-5.34-10.4h0a8.28,8.28,0,0,1,7.14-5.71ZM171.38,46a8.09,8.09,0,1,1-3.22,0,8.09,8.09,0,0,1,3.22,0ZM62.1,44ZM26.16,0a8.18,8.18,0,0,1,3.26.43l122.7,41.88a8.27,8.27,0,0,1,5.15,10.5h0A8.27,8.27,0,0,1,146.77,58l-4.44-1.52-2.62.37a8.68,8.68,0,0,0-3.08,1.73l-1.15,1.71,65,22.18a8.26,8.26,0,0,1,5.15,10.49h0A8.27,8.27,0,0,1,195.1,98.1L144.42,80.8l-.22,3.32a8.63,8.63,0,0,0,1.38,3.25l.43.44L160,92.57a8.26,8.26,0,0,1,5.15,10.49h0a8.28,8.28,0,0,1-10.5,5.16L39.88,69.05a8.25,8.25,0,0,1-5.58-7.24l.42-3.25,1.66-2.84A8.28,8.28,0,0,1,42,53a8.17,8.17,0,0,1,3.26.42L82.43,66.1,83,66a8.68,8.68,0,0,0,3.08-1.73L88,61.53,67.26,54.45a8.25,8.25,0,0,1-5.58-7.24L62.1,44l1.66-2.84a8.26,8.26,0,0,1,8.84-2.31l5.81,2,.14-2.06a8.7,8.7,0,0,0-1.38-3.25l-1.85-1.89L24.07,16.09A8.25,8.25,0,0,1,18.5,8.85l.42-3.25,1.66-2.84A8.28,8.28,0,0,1,26.16,0Z"/>
</svg>
