<svg xmlns="http://www.w3.org/2000/svg"
     viewBox="0 0 38.4 33">
    <defs>
        <style>.a{fill:none;}.b{clip-path:url(#a);}.c{fill:#67328f;fill-rule:evenodd;}</style>
        <clipPath id="a" transform="translate(-240.71 -221.24)">
            <rect class="a" x="240.71" y="221.24" width="38.4" height="33"/>
        </clipPath>
    </defs>
    <g class="b">
        <g class="b">
            <path class="c"
                  d="M241.38,238.85Zm5-2.48a4.93,4.93,0,0,1,1.89.64L260,243.82l11.36-6.57a5,5,0,1,1,5,8.73l-13.11,7.58a5,5,0,0,1-3.82.5l-.36-.17-.92.06a5.2,5.2,0,0,1-1.9-.63l-13.1-7.58a5,5,0,0,1-2.49-5l.64-1.9,1.32-1.5a5.08,5.08,0,0,1,3.67-1m.14-15.1a5,5,0,0,1,1.9.64l11.78,6.81,11.36-6.56a5,5,0,0,1,6.88,1.84h0a5,5,0,0,1-1.84,6.89l-13.11,7.57a5,5,0,0,1-3.83.51l-.35-.18-.93.07a5,5,0,0,1-1.89-.64l-13.11-7.57a5,5,0,0,1-2.48-5l.64-1.9,1.32-1.5a5,5,0,0,1,3.66-1"
                  transform="translate(-240.71 -221.24)"/>
        </g>
    </g>
</svg>