<svg xmlns="http://www.w3.org/2000/svg" xmlns:xlink="http://www.w3.org/1999/xlink" viewBox="0 0 192.96 194.76">
    <defs>
        <style>.a{fill:none;}.b{clip-path:url(#a);}.c{fill:#c0bfbf;fill-rule:evenodd;}</style>
        <clipPath id="a" transform="translate(-125.7 -184.76)">
            <rect class="a" x="125.7" y="184.76" width="192.96" height="194.76"/>
        </clipPath>
    </defs>
    <g class="b">
        <g class="b">
            <path class="c"
                  d="M222.18,365.47l12.22,14-26.28-1.83.12-.11-.61-.05a96.68,96.68,0,0,1-14.22-3.28l1.94-6.21a90.63,90.63,0,0,0,13.26,3.06l6.52.49Zm45-5.4,3.26,5.64a96.22,96.22,0,0,1-27.11,10.58l-1.42-6.35a89.78,89.78,0,0,0,25.27-9.87M240.3,349.78l1.31,4.89-9,1.69-10.48,9.11L210,351.41l9.77.68,10.16-.35a69.69,69.69,0,0,0,10.41-2M156,343.12a91,91,0,0,0,10,9.28l5.4,3.69,9.16-1.79,3.56,18.29-21.84-14.73.16,0-.51-.35a97.45,97.45,0,0,1-10.67-10Zm21-7.1,8.12,5.48,9,4.77a70,70,0,0,0,10,3.51l-1.31,4.89-8.6-3-13.63,2.65Zm94.71-4.36,3.58,3.58A74.65,74.65,0,0,1,257,348.65l-2.35-4.48a70.17,70.17,0,0,0,17-12.51m28.42-4.52,5.63,3.25a96.63,96.63,0,0,1-18.18,22.72l-4.41-4.79a89.9,89.9,0,0,0,17-21.18m-144-20.95,4.3,8.81,5.38,8.62a71.37,71.37,0,0,0,6.9,8l-3.58,3.58-5.94-6.91L150,323.81Zm-21.7-4.33a90.08,90.08,0,0,0,4,13l2.83,5.89,8.83,3.05L144,341.42l-11.55-23.68.15.05-.26-.55a96.57,96.57,0,0,1-4.27-14Zm155.41-1.59,4.9,1.31a75.14,75.14,0,0,1-9.1,20.74l-4.27-2.71a70.12,70.12,0,0,0,8.47-19.34m22.35-18.13h6.51a96.43,96.43,0,0,1-4.39,28.77L308.06,309a90,90,0,0,0,4.09-26.83m-165-3.07,5.06.21a70.11,70.11,0,0,0,2.32,21l-4.89,1.31a75.29,75.29,0,0,1-2.49-22.51M294.7,262.71a75.26,75.26,0,0,1,2.49,22.51l-5.06-.21a69.8,69.8,0,0,0-2.33-21Zm-164.61-9.33,6.21,1.94a90,90,0,0,0-4.09,26.82H125.7a96.42,96.42,0,0,1,4.39-28.76M158.75,242l4.28,2.71A70.15,70.15,0,0,0,154.55,264l-4.89-1.31A75.41,75.41,0,0,1,158.75,242m116.51-12.92L281.2,236l13.13,4.52-6.07,17.62L284,249.29l-5.39-8.63a70.12,70.12,0,0,0-6.9-8Zm25.13-6.18,11.55,23.68-.16-.05.27.55a95.3,95.3,0,0,1,4.26,14L310,262.43a88.81,88.81,0,0,0-4-13l-2.83-5.9-8.83-3Zm-113.06-7.23,2.35,4.48a70.36,70.36,0,0,0-17,12.51l-3.58-3.58a75,75,0,0,1,18.24-13.41m-30.52-4.46,4.41,4.79a89.9,89.9,0,0,0-17,21.18l-5.64-3.25a96.42,96.42,0,0,1,18.19-22.72m84.8-1.56,8.6,3L263.83,210l3.56,18.28-8.12-5.48-9-4.77a70,70,0,0,0-10-3.51Zm-19.43-10.8,12.22,14.06-9.77-.68-10.17.35a69.8,69.8,0,0,0-10.4,2l-1.31-4.89,8.95-1.69Zm38.1-7.12,21.84,14.73-.16,0,.51.35a98.37,98.37,0,0,1,10.67,9.95l-4.79,4.41a91,91,0,0,0-10-9.28L273,208.2,263.83,210ZM201,188l1.43,6.36a89.84,89.84,0,0,0-25.28,9.87l-3.25-5.64A96.48,96.48,0,0,1,201,188m8.92-3.23,26.27,1.84-.12.11.62,0A97.88,97.88,0,0,1,250.94,190L249,196.25a90.21,90.21,0,0,0-13.25-3.06l-6.52-.49-7,6.12Z"
                  transform="translate(-125.7 -184.76)"/>
        </g>
    </g>
</svg>