<svg xmlns="http://www.w3.org/2000/svg" viewBox="0 0 374 213">
    <defs>
        <style>
            .a{fill:#dbdbdb}.b{fill:none;stroke:#c2c2c2;stroke-miterlimit:8;opacity:0;}.c{fill:#414143;}.c,.d,.e,.g{fill-rule:evenodd;}.d,.e,.f{fill:#620ac0;}.d{opacity:0.2;}.g{fill:#fff;}.h{fill:#fff2cc;}
        </style>
    </defs>
    <rect class="a" x="1.48" y="73.48" width="372" height="137" rx="6.99"/>
    <rect class="b" x="1.5" y="75.5" width="372" height="137" rx="6.99"/>
    <path class="c"
          d="M16.73,8A10.11,10.11,0,0,0,6.62,18.07V195.93A10.11,10.11,0,0,0,16.73,206H357.27a10.11,10.11,0,0,0,10.11-10.11V18.07A10.11,10.11,0,0,0,357.27,8ZM16,4.5H358A10.46,10.46,0,0,1,368.5,15V199A10.46,10.46,0,0,1,358,209.5H16A10.46,10.46,0,0,1,5.5,199V15A10.46,10.46,0,0,1,16,4.5Z"/>
    <path class="d"
          d="M372.5,189.5v-5.86l-2.16-.33c-12.3-1.95-25.41-4.06-39.06-6.27-72.76-11.83-132.89-22.37-134.34-23.54-.36-.29-4.38-1.17-11.36-2.51l-7.86-1.46,2.59.61c1.72.45,2.6.73,2.54.84-.51.82,59,13.19,133,27.63,13.87,2.71,27.27,5.29,39.88,7.71Zm0-9.06V169.93l-5.27-.82c-17.11-2.67-36.39-5.75-56.86-9.07-45.47-7.4-86-14.28-110.38-18.7l-4.74-.87,5.05,1.19c20,4.5,67.38,14.17,122.87,25l18.23,3.52-17.9-3.26c-54.44-10-100.67-18.7-119.94-22.61l-4.83-1L191,141.92c-6.86-1.24-10.76-2-11-2.2-.9-.73-60.59-10.9-133.35-22.73-13.65-2.22-26.78-4.33-39.11-6.31L.48,109.56v10.51l5.27.82c17.11,2.67,36.39,5.75,56.85,9.07,45.48,7.4,86,14.28,110.39,18.7l4.73.87-5-1.19c-20-4.5-67.38-14.17-122.87-25l-18.23-3.52,17.9,3.26c54.44,10,100.67,18.7,119.94,22.61l4.83,1,7.75,1.37c6.86,1.24,10.76,2,11,2.2.9.73,60.58,10.9,133.35,22.73,13.64,2.22,26.78,4.33,39.1,6.31Zm-177.25-40-2.58-.61c-1.73-.45-2.6-.73-2.54-.84.5-.82-59-13.19-133-27.63-13.87-2.71-27.27-5.29-39.88-7.71L.48,100.5v5.86l2.15.33c12.3,2,25.42,4.06,39.06,6.27,72.77,11.83,132.9,22.37,134.34,23.54.36.29,4.39,1.17,11.37,2.51Z"/>
    <path class="c"
          d="M362.69,212.5H11.31A10.81,10.81,0,0,1,.5,201.68V11.32A10.81,10.81,0,0,1,11.31.5H362.69A10.81,10.81,0,0,1,373.5,11.32V201.68A10.81,10.81,0,0,1,362.69,212.5Zm-2.16-2.59c5.9,0,10.68-3.55,10.68-7.94V82.08L2.79,81.71V202c0,4.39,4.78,7.94,10.68,7.94Z"/>
    <path class="b"
          d="M362.69,212.5H11.31A10.81,10.81,0,0,1,.5,201.68V11.32A10.81,10.81,0,0,1,11.31.5H362.69A10.81,10.81,0,0,1,373.5,11.32V201.68A10.81,10.81,0,0,1,362.69,212.5Zm-2.16-2.59c5.9,0,10.68-3.55,10.68-7.94V82.08L2.79,81.71V202c0,4.39,4.78,7.94,10.68,7.94Z"/>
    <polygon class="e" points="373.48 15.48 99.48 15.48 115.12 65.48 373.48 64.95 373.48 15.48"/>
    <polygon class="e" points="373 70 117 70 125.01 76 373 76 373 70"/>
    <rect class="f" x="37" y="177" width="2" height="14"/>
    <rect class="f" x="29" y="177" width="2" height="14"/>
    <rect class="f" x="35" y="177" width="1" height="14"/>
    <rect class="f" x="32" y="177" width="1" height="14"/>
    <rect class="f" x="26" y="177" width="2" height="14"/>
    <rect class="f" x="18" y="177" width="2" height="14"/>
    <rect class="f" x="23" y="177" width="1" height="14"/>
    <rect class="f" x="21" y="177" width="1" height="14"/>
    <rect class="f" x="15" y="177" width="1" height="14"/>
    <rect class="f" x="105" y="177" width="2" height="14"/>
    <rect class="f" x="97" y="177" width="2" height="14"/>
    <rect class="f" x="103" y="177" width="1" height="14"/>
    <rect class="f" x="100" y="177" width="2" height="14"/>
    <rect class="f" x="94" y="177" width="2" height="14"/>
    <rect class="f" x="86" y="177" width="2" height="14"/>
    <rect class="f" x="91" y="177" width="2" height="14"/>
    <rect class="f" x="89" y="177" width="1" height="14"/>
    <rect class="f" x="84" y="177" width="1" height="14"/>
    <rect class="f" x="139" y="177" width="2" height="14"/>
    <rect class="f" x="131" y="177" width="2" height="14"/>
    <rect class="f" x="137" y="177" width="1" height="14"/>
    <rect class="f" x="135" y="177" width="1" height="14"/>
    <rect class="f" x="128" y="177" width="2" height="14"/>
    <rect class="f" x="120" y="177" width="2" height="14"/>
    <rect class="f" x="126" y="177" width="1" height="14"/>
    <rect class="f" x="123" y="177" width="1" height="14"/>
    <rect class="f" x="118" y="177" width="1" height="14"/>
    <rect class="f" x="71" y="177" width="2" height="14"/>
    <rect class="f" x="63" y="177" width="2" height="14"/>
    <rect class="f" x="69" y="177" width="1" height="14"/>
    <rect class="f" x="66" y="177" width="2" height="14"/>
    <rect class="f" x="60" y="177" width="2" height="14"/>
    <rect class="f" x="52" y="177" width="2" height="14"/>
    <rect class="f" x="57" y="177" width="1" height="14"/>
    <rect class="f" x="55" y="177" width="1" height="14"/>
    <rect class="f" x="49" y="177" width="2" height="14"/>
    <rect class="f" x="173" y="177" width="2" height="14"/>
    <rect class="f" x="165" y="177" width="3" height="14"/>
    <rect class="f" x="171" y="177" width="1" height="14"/>
    <rect class="f" x="169" y="177" width="1" height="14"/>
    <rect class="f" x="162" y="177" width="2" height="14"/>
    <rect class="f" x="154" y="177" width="2" height="14"/>
    <rect class="f" x="160" y="177" width="1" height="14"/>
    <rect class="f" x="157" y="177" width="1" height="14"/>
    <rect class="f" x="152" y="177" width="1" height="14"/>
    <polygon class="g" points="181.34 55.2 220.34 55.2 259.34 55.2 298.34 55.2 298.34 56.2 259.34 56.2 220.34 56.2 181.34 56.2 181.34 55.2"/>
    <circle class="h" cx="47.5" cy="42.5" r="34.5"/>
</svg>