<svg xmlns="http://www.w3.org/2000/svg" xmlns:xlink="http://www.w3.org/1999/xlink" viewBox="0 0 374 213"><defs><style>.a,.f{fill:none;}.b{clip-path:url(#a);}.c{fill:#dbdbdb;}.d{opacity:0;}.e{clip-path:url(#d);}.f{stroke:#c3c2c2;stroke-miterlimit:8;}.g{fill:#414143;}.g,.j,.n{fill-rule:evenodd;}.h{opacity:0.2;}.i{clip-path:url(#e);}.j,.m{fill:#513390;}.k{opacity:0.68;}.l{clip-path:url(#g);}.n{fill:#fcefca;}</style><clipPath id="a" transform="translate(-89 -336.53)"><rect class="a" x="89" y="336.53" width="374" height="213"/></clipPath><clipPath id="d" transform="translate(-89 -336.53)"><rect class="a" x="90" y="411.53" width="373" height="138"/></clipPath><clipPath id="e" transform="translate(-89 -336.53)"><rect class="a" x="89.48" y="437.03" width="372.02" height="89"/></clipPath><clipPath id="g" transform="translate(-89 -336.53)"><rect class="a" x="188.48" y="352.01" width="274" height="50"/></clipPath></defs><g class="b"><g class="b"><g class="b"><rect class="c" x="1.48" y="73.48" width="372" height="137" rx="6.99"/><g class="d"><g class="e"><rect class="f" x="1.5" y="75.5" width="372" height="137" rx="6.99"/></g></g><path class="g" d="M105.73,344.49A10.11,10.11,0,0,0,95.62,354.6V532.46a10.11,10.11,0,0,0,10.11,10.11H446.27a10.11,10.11,0,0,0,10.11-10.11V354.6a10.11,10.11,0,0,0-10.11-10.11ZM105,341H447a10.46,10.46,0,0,1,10.46,10.46V535.57A10.46,10.46,0,0,1,447,546H105A10.46,10.46,0,0,1,94.5,535.57V351.49A10.46,10.46,0,0,1,105,341" transform="translate(-89 -336.53)"/><g class="h"><g class="i"><path class="j" d="M461.5,526v-5.86l-2.16-.33c-12.29-2-25.41-4.06-39.06-6.27C347.52,501.74,287.39,491.2,285.94,490c-.36-.29-4.38-1.17-11.36-2.51l-7.85-1.46,2.58.61c1.72.45,2.6.73,2.54.84-.51.82,59,13.19,133,27.63,13.87,2.71,27.27,5.29,39.88,7.71Zm0-9.06V506.46l-5.27-.82c-17.11-2.67-36.39-5.75-56.86-9.07-45.47-7.4-86-14.28-110.38-18.7l-4.74-.87,5.05,1.19c20,4.5,67.38,14.17,122.87,25l18.23,3.52-17.9-3.26c-54.44-10-100.67-18.7-119.94-22.61l-4.83-1L280,478.45c-6.86-1.24-10.76-2-11-2.2-.9-.73-60.59-10.9-133.35-22.73-13.65-2.22-26.78-4.33-39.11-6.31l-7.06-1.12V456.6l5.27.82c17.11,2.67,36.39,5.75,56.85,9.07,45.48,7.4,86,14.28,110.39,18.7l4.74.87-5.05-1.19c-20-4.5-67.38-14.17-122.87-25l-18.23-3.52,17.9,3.26c54.44,10,100.67,18.7,119.94,22.61l4.83,1,7.75,1.37c6.86,1.24,10.76,2,11,2.2.9.73,60.59,10.9,133.35,22.73,13.64,2.22,26.78,4.33,39.1,6.31ZM284.25,477l-2.58-.61c-1.73-.45-2.6-.73-2.54-.84.5-.82-59-13.19-133-27.63-13.87-2.71-27.27-5.3-39.88-7.71L89.48,437v5.85l2.15.34c12.3,1.95,25.42,4.06,39.06,6.27C203.46,461.32,263.59,471.86,265,473c.36.29,4.39,1.17,11.37,2.51Z" transform="translate(-89 -336.53)"/></g></g><path class="g" d="M451.68,549H100.31A10.81,10.81,0,0,1,89.5,538.21V347.85A10.81,10.81,0,0,1,100.31,337H451.68a10.81,10.81,0,0,1,10.82,10.82V538.21A10.81,10.81,0,0,1,451.68,549m-2.15-2.59c5.9,0,10.68-3.55,10.68-7.94V418.61l-368.42-.37V538.5c0,4.39,4.78,7.94,10.68,7.94Z" transform="translate(-89 -336.53)"/><g class="d"><g class="b"><path class="f" d="M451.68,549H100.31A10.81,10.81,0,0,1,89.5,538.21V347.85A10.81,10.81,0,0,1,100.31,337H451.68a10.81,10.81,0,0,1,10.82,10.82V538.21A10.81,10.81,0,0,1,451.68,549Zm-2.15-2.59c5.9,0,10.68-3.55,10.68-7.94V418.61l-368.42-.37V538.5c0,4.39,4.78,7.94,10.68,7.94Z" transform="translate(-89 -336.53)"/></g></g><g class="k"><g class="l"><polygon class="j" points="373.48 15.48 99.48 15.48 115.12 65.48 373.48 64.95 373.48 15.48"/></g></g><polygon class="j" points="373 70 117 70 125.01 76 373 76 373 70"/><rect class="m" x="105" y="177" width="2" height="14"/><rect class="m" x="97" y="177" width="2" height="14"/><rect class="m" x="103" y="177" width="1" height="14"/><rect class="m" x="100" y="177" width="2" height="14"/><rect class="m" x="94" y="177" width="2" height="14"/><rect class="m" x="86" y="177" width="2" height="14"/><rect class="m" x="91" y="177" width="2" height="14"/><rect class="m" x="89" y="177" width="1" height="14"/><rect class="m" x="84" y="177" width="1" height="14"/><rect class="m" x="139" y="177" width="2" height="14"/><rect class="m" x="131" y="177" width="2" height="14"/><rect class="m" x="137" y="177" width="1" height="14"/><rect class="m" x="135" y="177" width="1" height="14"/><rect class="m" x="128" y="177" width="2" height="14"/><rect class="m" x="120" y="177" width="2" height="14"/><rect class="m" x="126" y="177" width="1" height="14"/><rect class="m" x="123" y="177" width="1" height="14"/><rect class="m" x="118" y="177" width="1" height="14"/><rect class="m" x="71" y="177" width="2" height="14"/><rect class="m" x="63" y="177" width="2" height="14"/><rect class="m" x="69" y="177" width="1" height="14"/><rect class="m" x="66" y="177" width="2" height="14"/><rect class="m" x="60" y="177" width="2" height="14"/><rect class="m" x="52" y="177" width="2" height="14"/><rect class="m" x="57" y="177" width="1" height="14"/><rect class="m" x="55" y="177" width="1" height="14"/><rect class="m" x="49" y="177" width="2" height="14"/><rect class="m" x="173" y="177" width="2" height="14"/><rect class="m" x="165" y="177" width="3" height="14"/><rect class="m" x="171" y="177" width="1" height="14"/><rect class="m" x="169" y="177" width="1" height="14"/><rect class="m" x="162" y="177" width="2" height="14"/><rect class="m" x="154" y="177" width="2" height="14"/><rect class="m" x="160" y="177" width="1" height="14"/><rect class="m" x="157" y="177" width="1" height="14"/><rect class="m" x="152" y="177" width="1" height="14"/><path class="n" d="M102,379a34.5,34.5,0,1,1,34.5,34.5A34.5,34.5,0,0,1,102,379" transform="translate(-89 -336.53)"/></g></g></g></svg>