<svg xmlns="http://www.w3.org/2000/svg" viewBox="0 0 374 213">
    <defs>
        <style>
            .a{fill:#dbdbdb;}.b{fill:none;stroke:#c2c2c2;stroke-miterlimit:8;opacity:0;}.c{fill:#414143;}.c,.d,.e,.g{fill-rule:evenodd;}.d,.e,.f{fill:#620ac0;}.d{opacity:0.2;}.g{fill:#fff;}.h{fill:#fff2cc;}
        </style>
    </defs>
    <rect class="a" x="1.48" y="73.48" width="372" height="137" rx="6.99"/>
    <rect class="b" x="1.5" y="75.5" width="372" height="137" rx="6.99"/>
    <path class="c"
          d="M513.25,285.48a10.11,10.11,0,0,0-10.11,10.11V473.46a10.11,10.11,0,0,0,10.11,10.1H853.79a10.11,10.11,0,0,0,10.11-10.1V295.59a10.11,10.11,0,0,0-10.11-10.11Zm-.76-3.46H854.56A10.46,10.46,0,0,1,865,292.48V476.56A10.46,10.46,0,0,1,854.56,487H512.49A10.46,10.46,0,0,1,502,476.56V292.48A10.47,10.47,0,0,1,512.49,282Z"
          transform="translate(-496.52 -277.52)"/>
    <path class="d"
          d="M869,467v-5.85l-2.15-.34c-12.3-1.95-25.42-4.06-39.06-6.27C755,442.73,694.91,432.19,693.47,431c-.36-.29-4.39-1.17-11.37-2.51l-7.85-1.45,2.58.61c1.73.44,2.6.72,2.54.83-.5.82,59,13.19,133,27.63,13.87,2.71,27.27,5.3,39.88,7.71Zm0-9.06V447.45l-5.27-.82c-17.11-2.67-36.39-5.75-56.86-9.07-45.47-7.39-86-14.28-110.38-18.69l-4.74-.88,5.05,1.19c20,4.5,67.38,14.17,122.87,25l18.23,3.52L820,444.44c-54.44-10-100.67-18.7-119.94-22.61l-4.83-1-7.75-1.37c-6.86-1.24-10.76-2-11-2.2-.9-.72-60.59-10.9-133.35-22.73l-39.1-6.31L497,387.08v10.51l5.27.82c17.11,2.67,36.39,5.75,56.86,9.07,45.47,7.4,86,14.28,110.38,18.7l4.74.88-5-1.2c-20-4.5-67.38-14.17-122.87-25l-18.23-3.52L546,400.6c54.44,10,100.67,18.71,119.94,22.62l4.83,1,7.75,1.37c6.86,1.24,10.76,2,11,2.2.9.73,60.59,10.9,133.35,22.73,13.64,2.22,26.78,4.34,39.11,6.31ZM691.77,418l-2.58-.61c-1.73-.45-2.6-.73-2.54-.83.5-.83-59-13.2-133-27.64-13.87-2.71-27.27-5.29-39.88-7.71L497,378v5.86l2.16.33c12.29,2,25.41,4.06,39.05,6.28C611,402.31,671.11,412.85,672.55,414c.37.3,4.39,1.17,11.37,2.51Z"
          transform="translate(-496.52 -277.52)"/>
    <path class="c"
          d="M859.21,490H507.84A10.81,10.81,0,0,1,497,479.2V288.84A10.82,10.82,0,0,1,507.84,278H859.21A10.82,10.82,0,0,1,870,288.84V479.2A10.81,10.81,0,0,1,859.21,490Zm-2.16-2.59c5.9,0,10.68-3.55,10.68-7.94V359.6l-368.42-.37V479.49c0,4.39,4.78,7.94,10.68,7.94Z"
          transform="translate(-496.52 -277.52)"/>
    <path class="b"
          d="M859.21,490H507.84A10.81,10.81,0,0,1,497,479.2V288.84A10.82,10.82,0,0,1,507.84,278H859.21A10.82,10.82,0,0,1,870,288.84V479.2A10.81,10.81,0,0,1,859.21,490Zm-2.16-2.59c5.9,0,10.68-3.55,10.68-7.94V359.6l-368.42-.37V479.49c0,4.39,4.78,7.94,10.68,7.94Z"
          transform="translate(-496.52 -277.52)"/>
    <polygon class="e" points="373.48 15.48 99.48 15.48 115.12 65.48 373.48 64.95 373.48 15.48"/>
    <polygon class="e" points="373 70 117 70 125.01 76 373 76 373 70"/>
    <rect class="f" x="37" y="177" width="2" height="14"/>
    <rect class="f" x="29" y="177" width="2" height="14"/>
    <rect class="f" x="35" y="177" width="1" height="14"/>
    <rect class="f" x="32" y="177" width="1" height="14"/>
    <rect class="f" x="26" y="177" width="2" height="14"/>
    <rect class="f" x="18" y="177" width="2" height="14"/>
    <rect class="f" x="23" y="177" width="1" height="14"/>
    <rect class="f" x="21" y="177" width="1" height="14"/>
    <rect class="f" x="15" y="177" width="1" height="14"/>
    <rect class="f" x="105" y="177" width="2" height="14"/>
    <rect class="f" x="97" y="177" width="2" height="14"/>
    <rect class="f" x="103" y="177" width="1" height="14"/>
    <rect class="f" x="100" y="177" width="2" height="14"/>
    <rect class="f" x="94" y="177" width="2" height="14"/>
    <rect class="f" x="86" y="177" width="2" height="14"/>
    <rect class="f" x="91" y="177" width="2" height="14"/>
    <rect class="f" x="89" y="177" width="1" height="14"/>
    <rect class="f" x="84" y="177" width="1" height="14"/>
    <rect class="f" x="139" y="177" width="2" height="14"/>
    <rect class="f" x="131" y="177" width="2" height="14"/>
    <rect class="f" x="137" y="177" width="1" height="14"/>
    <rect class="f" x="135" y="177" width="1" height="14"/>
    <rect class="f" x="128" y="177" width="2" height="14"/>
    <rect class="f" x="120" y="177" width="2" height="14"/>
    <rect class="f" x="126" y="177" width="1" height="14"/>
    <rect class="f" x="123" y="177" width="1" height="14"/>
    <rect class="f" x="118" y="177" width="1" height="14"/>
    <rect class="f" x="71" y="177" width="2" height="14"/>
    <rect class="f" x="63" y="177" width="2" height="14"/>
    <rect class="f" x="69" y="177" width="1" height="14"/>
    <rect class="f" x="66" y="177" width="2" height="14"/>
    <rect class="f" x="60" y="177" width="2" height="14"/>
    <rect class="f" x="52" y="177" width="2" height="14"/>
    <rect class="f" x="57" y="177" width="1" height="14"/>
    <rect class="f" x="55" y="177" width="1" height="14"/>
    <rect class="f" x="49" y="177" width="2" height="14"/>
    <rect class="f" x="173" y="177" width="2" height="14"/>
    <rect class="f" x="165" y="177" width="3" height="14"/>
    <rect class="f" x="171" y="177" width="1" height="14"/>
    <rect class="f" x="169" y="177" width="1" height="14"/>
    <rect class="f" x="162" y="177" width="2" height="14"/>
    <rect class="f" x="154" y="177" width="2" height="14"/>
    <rect class="f" x="160" y="177" width="1" height="14"/>
    <rect class="f" x="157" y="177" width="1" height="14"/>
    <rect class="f" x="152" y="177" width="1" height="14"/>
    <polygon class="g" points="182.34 39.2 221 39.2 259.67 39.2 298.34 39.2 298.34 40.2 259.67 40.2 221 40.2 182.34 40.2 182.34 39.2"/>
    <polygon class="g" points="181.34 55.2 220.34 55.2 259.34 55.2 298.34 55.2 298.34 56.2 259.34 56.2 220.34 56.2 181.34 56.2 181.34 55.2"/>
    <circle class="h" cx="47.5" cy="42.5" r="34.5"/>
</svg>