<svg height="100" width="100"
     xmlns="http://www.w3.org/2000/svg"
     viewBox="0 0 200 300"
     version="1.1"
>
    <defs>
        <style>.a{fill:#fff;fill-rule:evenodd;}</style>
    </defs>
    <path class="a"
          d="M57.56,280.26l2,6.49,5.66,3.78-6.5,2L55,298.2l-2-6.49-5.65-3.78,6.49-2,3.77-5.66Zm138.53-11.79ZM180,217.93Zm-119-46a7.66,7.66,0,0,1,3.13.35L174.91,208a8,8,0,0,1,5.48,6.85l-.36,3.13-1.54,2.75a7.92,7.92,0,0,1-8.44,2.37L134.14,211.5l-.58.09a8.27,8.27,0,0,0-2.93,1.71L128.89,216l20,6.44a7.94,7.94,0,0,1,5.48,6.85L154,232.4l-1.54,2.75a7.94,7.94,0,0,1-8.44,2.37l-5.61-1.81-.1,2a8.21,8.21,0,0,0,1.38,3.09l1.81,1.79L191,258.49a7.93,7.93,0,0,1,5.47,6.85l-.35,3.13-1.54,2.75a8,8,0,0,1-8.45,2.37L67.68,235.48a7.93,7.93,0,0,1-5.12-10h0A7.91,7.91,0,0,1,69.41,220a7.66,7.66,0,0,1,3.13.35l4.29,1.38,2.51-.4a8.31,8.31,0,0,0,2.92-1.71L83.34,218,35,202.44a7.93,7.93,0,0,1-5.12-10h0A7.92,7.92,0,0,1,36.75,187a7.66,7.66,0,0,1,3.13.35l34.53,11.11.16-3.19a8.32,8.32,0,0,0-1.38-3.1l-.42-.41-13.45-4.33a7.93,7.93,0,0,1-5.12-10h0A7.91,7.91,0,0,1,61.05,172Zm-12.88-8.7,1.52,4.88L53.94,171l-4.88,1.52-2.83,4.25-1.52-4.88L40.46,169l4.88-1.52,2.83-4.25ZM33.56,94a7.77,7.77,0,1,1-3.08,0,7.77,7.77,0,0,1,3.08,0ZM7.36,61.83a7.87,7.87,0,0,1,3.12.41l117.73,40.18a7.93,7.93,0,0,1,4.95,10.07h0a7.94,7.94,0,0,1-10.07,5L118.83,116l-2.52.36a8.33,8.33,0,0,0-3,1.65l-1.11,1.65,62.33,21.27A7.94,7.94,0,0,1,179.53,151h0a7.94,7.94,0,0,1-10.07,5l-48.63-16.6-.21,3.19a8.33,8.33,0,0,0,1.32,3.12l.42.42,13.37,4.56a7.94,7.94,0,0,1,4.94,10.07h0a7.93,7.93,0,0,1-10.07,4.95L20.51,128.06a7.93,7.93,0,0,1-5.35-6.94l.41-3.13,1.59-2.72a8,8,0,0,1,5.36-2.63,7.87,7.87,0,0,1,3.12.41l35.7,12.18.59-.08a8.33,8.33,0,0,0,2.95-1.65l1.79-2.66-19.88-6.78a8,8,0,0,1-5.36-7l.41-3.12,1.59-2.72A7.9,7.9,0,0,1,51.91,99L57.49,101l.13-2a8.33,8.33,0,0,0-1.32-3.12L54.52,94,5.35,77.25A7.93,7.93,0,0,1,0,70.31l.41-3.13L2,64.46a8,8,0,0,1,5.36-2.63ZM74,61.14a7.77,7.77,0,1,1-3.08,0,7.62,7.62,0,0,1,3.08,0ZM53.93,0l2.44,7.86,6.85,4.56-7.86,2.44L50.8,21.71l-2.44-7.86L41.51,9.29l7.86-2.44L53.93,0Z"/>
</svg>